<svg xmlns="http://www.w3.org/2000/svg" viewBox="0 0 64 64" width="64" height="64">
  <!-- Background mit Hotel-Farben -->
  <rect width="64" height="64" fill="#2D5A3D" rx="4"/>
  
  <!-- Hotel Logo - Fenster mit Welle -->
  <g transform="translate(32, 24) scale(0.8)">
    <!-- Äußerer Fensterrahmen -->
    <path d="M-14,-10 L14,-10 Q16,-10 16,-8 L16,8 Q16,10 14,10 L-14,10 Q-16,10 -16,8 L-16,-8 Q-16,-10 -14,-10 Z" 
          fill="none" stroke="#E5D5B7" stroke-width="1.5"/>
    
    <!-- Vertikaler Rahmen -->
    <line x1="0" y1="-10" x2="0" y2="10" stroke="#E5D5B7" stroke-width="1.5"/>
    
    <!-- Horizontaler Rahmen -->
    <line x1="-16" y1="0" x2="16" y2="0" stroke="#E5D5B7" stroke-width="1.5"/>
    
    <!-- Wellen-Element unten -->
    <path d="M-10,3 Q-5,7 0,3 Q5,7 10,3" fill="none" stroke="#E5D5B7" stroke-width="1.5" stroke-linecap="round"/>
  </g>
  
  <!-- Blätter-Dekoration unten -->
  <g transform="translate(32, 50) scale(0.6)">
    <path d="M-6,0 Q-3,-4 0,0 Q3,-4 6,0 Q3,2 0,0 Q-3,2 -6,0" fill="#E5D5B7"/>
    <path d="M-8,1 Q-4,-1 0,1 Q4,-1 8,1" fill="none" stroke="#E5D5B7" stroke-width="1"/>
  </g>
</svg>