<svg width="32" height="32" viewBox="0 0 32 32" fill="none" xmlns="http://www.w3.org/2000/svg">
  <rect width="32" height="32" fill="#2D5A3D"/>
  <path d="M8 6C8 5.44772 8.44772 5 9 5H23C23.5523 5 24 5.44772 24 6V20C24 20.5523 23.5523 21 23 21H17V23H19C19.5523 23 20 23.4477 20 24C20 24.5523 19.5523 25 19 25H13C12.4477 25 12 24.5523 12 24C12 23.4477 12.4477 23 13 23H15V21H9C8.44772 21 8 20.5523 8 20V6Z" fill="#E8D5B7"/>
  <path d="M16 6V20M8 13H24" stroke="#2D5A3D" stroke-width="2"/>
  <path d="M10 16C12 14 14 16 16 16C18 16 20 14 22 16" stroke="#E8D5B7" stroke-width="2" stroke-linecap="round"/>
</svg>